<svg width="48" height="48" viewBox="0 0 48 48" fill="none" xmlns="http://www.w3.org/2000/svg">
  <!-- Background -->
  <rect width="48" height="48" fill="#050505"/>

  <!-- Glow filter -->
  <defs>
    <filter id="glow48" x="-50%" y="-50%" width="200%" height="200%">
      <feGaussianBlur stdDeviation="1.5" result="coloredBlur"/>
      <feMerge>
        <feMergeNode in="coloredBlur"/>
        <feMergeNode in="SourceGraphic"/>
      </feMerge>
    </filter>
  </defs>

  <!-- Tab shape with bite -->
  <g filter="url(#glow48)">
    <!-- Main tab outline -->
    <path d="M8 40V15C8 13 9.5 11.5 11 11.5H20L24 8H37C39 8 40 9.5 40 11.5V27L34 27V21L40 21"
          fill="none" stroke="#39FF14" stroke-width="2" stroke-linejoin="round"/>
    <path d="M8 40H37C39 40 40 38.5 40 37V33L34 33V27"
          fill="none" stroke="#39FF14" stroke-width="2" stroke-linejoin="round"/>
    <path d="M40 21L34 21V27L40 27V33L34 33"
          fill="none" stroke="#39FF14" stroke-width="2" stroke-linejoin="round"/>
  </g>

  <!-- AI Eye -->
  <circle cx="19" cy="26" r="5" fill="none" stroke="#39FF14" stroke-width="1.5"/>
  <circle cx="19" cy="26" r="3" fill="#39FF14"/>
  <circle cx="20" cy="25" r="1" fill="#050505"/>

  <!-- Circuit accent -->
  <path d="M26 26H30" stroke="#39FF14" stroke-width="1" opacity="0.5"/>
</svg>
