<svg width="128" height="128" viewBox="0 0 128 128" fill="none" xmlns="http://www.w3.org/2000/svg">
  <!-- Background -->
  <rect width="128" height="128" fill="#050505"/>

  <!-- Tab outline with chamfered top -->
  <path d="M18 108V36C18 32 21 28 26 28H52L62 18H102C106 18 110 22 110 26V108C110 112 106 116 102 116H26C21 116 18 112 18 108Z"
        fill="none" stroke="#39FF14" stroke-width="4"/>

  <!-- The "Bite" - pixelated eaten effect on right edge -->
  <rect x="106" y="40" width="12" height="12" fill="#050505"/>
  <rect x="102" y="52" width="16" height="16" fill="#050505"/>
  <rect x="106" y="68" width="12" height="12" fill="#050505"/>

  <!-- Bite border reconstruction -->
  <path d="M106 40H118V52H102V68H118V80H106V68" stroke="#39FF14" stroke-width="4" fill="none"/>

  <!-- The "Eye" - center-left square -->
  <rect x="42" y="62" width="16" height="16" fill="#39FF14"/>

  <!-- Scanlines - 4 horizontal lines across bottom half -->
  <line x1="18" y1="80" x2="100" y2="80" stroke="#39FF14" stroke-width="2" opacity="0.4"/>
  <line x1="18" y1="88" x2="100" y2="88" stroke="#39FF14" stroke-width="2" opacity="0.4"/>
  <line x1="18" y1="96" x2="100" y2="96" stroke="#39FF14" stroke-width="2" opacity="0.4"/>
  <line x1="18" y1="104" x2="100" y2="104" stroke="#39FF14" stroke-width="2" opacity="0.4"/>
</svg>
