<svg width="48" height="48" viewBox="0 0 48 48" fill="none" xmlns="http://www.w3.org/2000/svg">
  <defs>
    <linearGradient id="bgGrad48" x1="0" y1="0" x2="48" y2="48" gradientUnits="userSpaceOnUse">
      <stop offset="0%" stop-color="#18181c"/>
      <stop offset="100%" stop-color="#0f0f12"/>
    </linearGradient>
    <linearGradient id="accentGrad48" x1="0" y1="0" x2="1" y2="1">
      <stop offset="0%" stop-color="#fb923c"/>
      <stop offset="100%" stop-color="#f97316"/>
    </linearGradient>
  </defs>

  <rect width="48" height="48" rx="10" fill="url(#bgGrad48)"/>
  <rect x="0.5" y="0.5" width="47" height="47" rx="9.5" fill="none" stroke="#27272f"/>

  <!-- Tab shape -->
  <path d="M10 36V18C10 16.895 10.895 16 12 16H21L24 13H36C37.105 13 38 13.895 38 15V36C38 37.105 37.105 38 36 38H12C10.895 38 10 37.105 10 36Z" fill="#1c1c22" stroke="#323240"/>

  <!-- Bite -->
  <rect x="30" y="13" width="5" height="4" fill="url(#accentGrad48)"/>
  <rect x="35" y="17" width="3" height="4" fill="url(#accentGrad48)" opacity="0.7"/>

  <!-- Dot -->
  <circle cx="32" cy="30" r="3" fill="url(#accentGrad48)"/>
</svg>
