<svg width="48" height="48" viewBox="0 0 48 48" fill="none" xmlns="http://www.w3.org/2000/svg">
  <!-- Background -->
  <rect width="48" height="48" fill="#050505"/>

  <!-- Tab outline with chamfered top -->
  <path d="M7 40V14C7 12.5 8 11 10 11H19L23 7H38C39.5 7 41 8.5 41 10V40C41 41.5 39.5 43 38 43H10C8 43 7 41.5 7 40Z"
        fill="none" stroke="#39FF14" stroke-width="2"/>

  <!-- The "Bite" - pixelated eaten effect -->
  <rect x="39" y="15" width="5" height="5" fill="#050505"/>
  <rect x="37" y="20" width="7" height="7" fill="#050505"/>
  <rect x="39" y="27" width="5" height="5" fill="#050505"/>

  <!-- Bite border -->
  <path d="M39 15H44V20H37V27H44V32H39" stroke="#39FF14" stroke-width="2" fill="none"/>

  <!-- The "Eye" -->
  <rect x="16" y="23" width="6" height="6" fill="#39FF14"/>

  <!-- Scanlines -->
  <line x1="7" y1="30" x2="36" y2="30" stroke="#39FF14" stroke-width="1" opacity="0.4"/>
  <line x1="7" y1="34" x2="36" y2="34" stroke="#39FF14" stroke-width="1" opacity="0.4"/>
  <line x1="7" y1="38" x2="36" y2="38" stroke="#39FF14" stroke-width="1" opacity="0.4"/>
</svg>
